<?xml version="1.0" encoding="utf-8"?>
<!-- Generator: Adobe Illustrator 25.4.1, SVG Export Plug-In . SVG Version: 6.00 Build 0)  -->
<svg version="1.1" id="Capa_1" xmlns="http://www.w3.org/2000/svg" xmlns:xlink="http://www.w3.org/1999/xlink" x="0px" y="0px"
	 viewBox="0 0 31 31" style="enable-background:new 0 0 31 31;" xml:space="preserve">
<style type="text/css">
	.st0{fill:none;stroke:#0060DF;stroke-width:2;stroke-miterlimit:10;}
	.st1{fill:#0060DF;}
</style>
<circle class="st0" cx="15.5" cy="15.5" r="14.5"/>
<path class="st1" d="M6.5,14c0-4.1,3.2-7.4,7.3-7.5c3.6,0,6.7,2.6,7.3,6.1c0.4,1.9-0.1,4-1.3,5.6c-0.1,0.2-0.1,0.2,0,0.4
	c1.4,1.4,2.9,2.8,4.3,4.3c0.4,0.4,0.3,1-0.1,1.4c-0.1,0.1-0.2,0.2-0.4,0.2c-0.4,0.1-0.7,0-1-0.3c-1.4-1.4-2.7-2.8-4.1-4.1
	c0-0.1-0.1-0.1-0.1-0.2s-0.2-0.1-0.3,0c-3.3,2.4-7.9,1.6-10.3-1.7c-0.6-0.8-1-1.7-1.2-2.6c-0.1-0.3-0.1-0.6-0.2-0.8
	C6.5,14.5,6.5,14.3,6.5,14z M13.9,19.4c3,0,5.5-2.4,5.5-5.5c0-3-2.4-5.5-5.5-5.5s-5.5,2.4-5.5,5.5c0,0,0,0,0,0
	C8.4,16.9,10.9,19.4,13.9,19.4L13.9,19.4z"/>
</svg>
