<?xml version="1.0" encoding="utf-8"?>
<!-- Generator: Adobe Illustrator 25.4.1, SVG Export Plug-In . SVG Version: 6.00 Build 0)  -->
<svg version="1.1" id="Capa_1" xmlns="http://www.w3.org/2000/svg" xmlns:xlink="http://www.w3.org/1999/xlink" x="0px" y="0px"
	 viewBox="0 0 500 200" style="enable-background:new 0 0 500 200;" xml:space="preserve">
<style type="text/css">
	.st0{fill:#FFFFFF;}
</style>
<g>
	<path class="st0" d="M462.6,108c-7.9-0.5-16.3-0.8-28.6-0.8c-1.7,18.8-2.7,37.7-3,64.6h-34.9c2.5-21.4,3.8-42.8,3.9-64.6
		c-20.3,0-24.2,0.5-28.5,0.8l1.2-23.8h91.1L462.6,108z M327.9,171.8c1.7-25.2,4-49.2,4-87.6h35.6c-2.2,28.5-3.8,48.2-3.8,87.6H327.9
		z M325,107.7c-8.3-0.4-17.5-0.5-25.8-0.5H281l-0.6,8.7c11.8,0,24.6,0.2,36.4,0l-1.5,23.6h-36c-0.3,10.7-0.7,21.5-0.8,32.3h-36.2
		c2.4-16.1,5.5-65.1,5.1-87.6h78.8L325,107.7z M201.8,171.8h36.1c-11.5-28.9-22.2-58.1-32.4-87.6h-41c-11.6,24.4-35.8,68.8-47,87.6
		H155l10.4-23h29C197,156.3,199.8,164,201.8,171.8 M183.3,107.8l6.1,20.1h-15.3L183.3,107.8z M117.2,107.7
		c-8.3-0.4-17.5-0.5-25.8-0.5H73.2l-0.7,8.7c11.8,0,23.6,0.2,35.4,0l-1.4,23.6H70.9l-0.6,9.3c15.1,0,30-0.4,45-1.2l-1.2,24.1H34.5
		c4.2-28.3,5.6-59,5.1-87.6h78.8L117.2,107.7z"/>
	<path class="st0" d="M54.5,36.9c0.2-2.7,0.4-5.3,0.6-7.8h-13c-0.2,6.5-0.6,12.1-0.9,16.8c-0.3,4.1-0.5,7.4-0.5,10
		c0,2.8,1.3,5.6,4.7,7.6c2.9,1.7,7.3,2.8,13.7,2.8c8.9,0,13.8-2.2,16.4-5c2.6-2.7,3.1-5.8,3.1-7.8c0.2-7.2,1.2-20.9,1.5-24.5H66.7
		c-0.1,4.6-0.4,15.5-1.5,22.5c-0.3,1.9-0.8,3.2-1.7,4.1c-0.9,0.9-2.3,1.3-4.3,1.3c-2,0-3.4-0.8-4.2-2.1c-0.8-1.3-1.1-3-1.1-4.9
		C53.8,46.4,54.2,41.7,54.5,36.9"/>
	<path class="st0" d="M86.4,46.9c-0.4,7.6-1,14.5-1.4,18.7h11.7c0.1-6.9,0.3-12.3,0.5-16.1c0.1-1.6,0.1-2.9,0.2-3.9l0-0.7l0-2
		c1.3,2.1,2.3,4.3,3.4,6.5c2,4.4,4.3,8.8,6.6,13.2c0.5,0.9,0.9,1.7,1.6,3.1h16c0.1-6.1,0.4-12.2,0.8-18.3c0.4-6,0.8-12.1,1.4-18.2
		H115c0,3.3-0.1,6.6-0.2,9.9c-0.1,3.7-0.3,7.3-0.5,10.8l-0.1,0.7l-0.1,2.2c-1-1.9-1.9-3.7-2.8-5.7c-1.1-2.6-2.3-5.2-3.6-7.8
		c-1.6-3.3-3.2-6.7-4.9-10.1H86.9C86.9,34.8,86.7,41,86.4,46.9"/>
	<path class="st0" d="M132.6,61.3c-0.1,1.5-0.2,2.9-0.3,4.3h13.8c0-16.2,0.7-24.7,1.6-36.5h-13.7C133.9,42.7,133.2,52.2,132.6,61.3"
		/>
	<path class="st0" d="M164.8,65.6h15.3l18.1-36.5h-13.4c-1.5,3.9-3.2,7.8-4.9,11.6c-1.8,4.1-3.6,8.1-5.1,12.3
		c-0.5,1.2-1,2.5-1.5,3.7c-0.4-1.2-0.7-2.4-1-3.6c-1-4.4-2.3-8.8-3.6-13.2c-1.1-3.6-2.1-7.2-3-10.9h-13.4c0.8,2.4,1.8,5.1,2.7,7.8
		C158.5,46.5,161.8,56,164.8,65.6"/>
	<path class="st0" d="M229.6,37.6c1.5,0,3,0.1,4.5,0.2l0.5-8.6H203c0.1,4.7-0.2,11.6-0.6,18.3c-0.4,7.2-1,14.3-1.5,18.2h31.7
		l0.6-8.9c-2.3,0.1-4.4,0.2-7,0.3c-2.9,0.1-6.3,0.2-10.9,0.2h-0.8l0.1-0.8l0.3-4.1l0-0.7h0.7H230l0.5-8.6c-0.9,0-1.9,0.1-2.8,0.1
		c-1.9,0.1-3.8,0.1-5.6,0.1h-5.8h-0.8l0.1-0.8l0.3-4l0-0.7h0.7h7.8C226,37.6,227.7,37.6,229.6,37.6"/>
	<path class="st0" d="M252.8,52.2c0.2-4.8,0.4-9.5,0.7-14.2l0.1-0.7h0.7h3.4h0.2c3.2,0,6.8,0,6.8,3.7c0,1.7-0.8,2.8-1.9,3.6
		c-1.3,0.9-3.2,1.2-4.9,1.2c-0.4,0-0.8,0-1.3-0.1l-0.1,0c0.8,3.2,1.7,6.4,2.4,9.6c0.8,3.4,1.6,6.8,2.4,10.2h13.6
		c-0.5-1.5-1.1-3.1-1.6-4.6c-1.2-3.5-2.5-7.1-3.6-10.7l-0.2-0.6l0.6-0.3c2.3-1.1,4.1-2.4,5.3-4.2c1.1-1.7,1.7-3.8,1.7-6.3
		c0-4.6-2.2-7-5-8.3c-2.9-1.3-6.4-1.5-8.7-1.5h-21.6c0,6.1-0.1,12.2-0.4,18.3c-0.3,6.1-0.7,12.1-1.4,18.2h12.7
		C252.6,61.2,252.7,56.7,252.8,52.2"/>
	<path class="st0" d="M306.2,37.5c1.1,0.3,2.2,0.6,3.3,1l-0.7-9.2c-1.6-0.3-3.3-0.6-5-0.8c-1.7-0.2-3.5-0.3-5.2-0.3
		c-4.9,0-8.4,1.1-10.7,2.7c-2.8,2-3.9,4.8-3.9,7.4c0,5.3,4.5,8.7,7.9,11.4c2.4,1.9,4.4,3.4,4.4,5.2c0,2.5-3.5,2.5-5,2.5
		c-1.7,0-3.8-0.4-5.7-1c-1.5-0.4-3-0.9-4.2-1.4l0.9,9.9c1.8,0.3,3.7,0.6,5.7,0.8c2.2,0.3,4.4,0.4,6.4,0.4c5.2,0,8.8-1.2,11.2-2.9
		c3-2.2,4-5.3,4-8.2c0-4.4-4.3-7.7-7.7-10.3c-2.5-1.9-4.6-3.5-4.6-5.2c0-1.3,1-2,2.2-2.3c1-0.2,2.1-0.3,2.6-0.3
		C303.3,37,304.8,37.2,306.2,37.5"/>
	<path class="st0" d="M316.5,61.3c-0.1,1.5-0.2,2.9-0.3,4.3h13.6c0-16.2,0.7-24.7,1.6-36.5h-13.5C317.8,42.7,317.1,52.2,316.5,61.3"
		/>
	<path class="st0" d="M359.7,54.9c-1.8,1.7-4.2,2.2-6.7,2.2c-0.4,0-0.8,0-1.2-0.1c-0.4,0-0.8-0.1-1.2-0.1l-0.7-0.1l0-0.7l0.8-17.7
		l0-0.6l0.6-0.1c0.5-0.1,1-0.1,1.5-0.2c0.5,0,1,0,1.5,0c2.8,0,4.8,0.7,6.2,2.2c1.4,1.5,2,3.6,2,6.4
		C362.6,50.5,361.5,53.3,359.7,54.9 M371.7,33.5c-2.6-2.9-6.5-4.4-11.3-4.4h-21.7c0,10.1-0.3,17.8-0.6,23.8c-0.3,5.6-0.7,9.7-1,12.7
		h20.7c5.6,0,10-2,13.1-5.3c3.2-3.5,4.9-8.5,4.9-14.4C375.7,40.6,374.3,36.4,371.7,33.5"/>
	<path class="st0" d="M395.7,48.7l5.4-12.3l3.7,12.3H395.7z M416.5,47.9c-2.3-6.2-4.5-12.5-6.6-18.8h-16.4c-2.3,4.9-5.6,11.4-9,17.9
		c-3.7,7.1-7.5,14.1-10.2,18.6h14.2l3.7-8.3l0.2-0.4h0.5h13.3h0.5l0.2,0.5v0l0,0c0.9,2.7,1.9,5.5,2.6,8.3h13.7
		C420.8,59.8,418.6,53.9,416.5,47.9"/>
	<path class="st0" d="M449.5,54.9c-1.8,1.7-4.2,2.2-6.7,2.2c-0.4,0-0.8,0-1.2-0.1c-0.4,0-0.8-0.1-1.2-0.1l-0.7-0.1l0-0.7l0.8-17.7
		l0-0.6l0.6-0.1c0.5-0.1,1-0.1,1.5-0.2c0.5,0,1,0,1.4,0c2.8,0,4.9,0.7,6.2,2.2c1.4,1.5,2,3.6,2,6.4
		C452.4,50.5,451.2,53.3,449.5,54.9 M461.5,33.5c-2.6-2.9-6.5-4.4-11.3-4.4h-21.7c0,10.1-0.3,17.8-0.6,23.8
		c-0.4,5.6-0.8,9.7-1.1,12.7h20.7c5.6,0,10-2,13.1-5.3c3.2-3.5,4.9-8.5,4.9-14.4C465.5,40.6,464.1,36.4,461.5,33.5"/>
</g>
</svg>
