<?xml version="1.0" encoding="utf-8"?>
<!-- Generator: Adobe Illustrator 25.4.1, SVG Export Plug-In . SVG Version: 6.00 Build 0)  -->
<svg version="1.1" id="Capa_1" xmlns="http://www.w3.org/2000/svg" xmlns:xlink="http://www.w3.org/1999/xlink" x="0px" y="0px"
	 viewBox="0 0 31 31" style="enable-background:new 0 0 31 31;" xml:space="preserve">
<style type="text/css">
	.st0{fill:none;stroke:#0060DF;stroke-width:2;stroke-miterlimit:10;}
	.st1{fill:none;stroke:#0060DF;stroke-width:1.7;stroke-miterlimit:10;}
</style>
<circle class="st0" cx="15.5" cy="15.5" r="14.5"/>
<path class="st1" d="M6.8,13.7v-1.2v-0.1c0.1-1.2,0.5-2.2,1.3-3.1c1-1.3,2.5-1.9,4-1.7c1.3,0.2,2.4,0.8,3.2,1.6
	c0.1,0.1,0.2,0.1,0.3,0c1-1,2.2-1.6,3.6-1.7c1-0.1,1.9,0.2,2.8,0.8c1.1,0.8,1.7,1.9,2,3.2c0.4,1.6,0.2,3.4-0.6,4.8
	c-0.7,1.4-1.7,2.8-2.9,3.9c-1.4,1.3-3,2.3-4.6,3.2c-0.2,0.1-0.5,0.1-0.7,0c-1.2-0.7-2.3-1.3-3.4-2.1C10.3,20.1,8.9,18.7,8,17
	c-0.5-0.8-0.8-1.7-1-2.6C6.9,14.2,6.9,13.9,6.8,13.7z"/>
</svg>
