<?xml version="1.0" encoding="utf-8"?>
<!-- Generator: Adobe Illustrator 25.4.1, SVG Export Plug-In . SVG Version: 6.00 Build 0)  -->
<svg version="1.1" id="Capa_1" xmlns="http://www.w3.org/2000/svg" xmlns:xlink="http://www.w3.org/1999/xlink" x="0px" y="0px"
	 viewBox="0 0 31 31" style="enable-background:new 0 0 31 31;" xml:space="preserve">
<style type="text/css">
	.st0{fill:none;stroke:#0060DF;stroke-width:2;stroke-miterlimit:10;}
	.st1{fill:#0060DF;}
</style>
<circle class="st0" cx="15.5" cy="15.5" r="14.5"/>
<g>
	<path class="st1" d="M6.5,16.5c0-1.4,0-2.7,0-4.1c0-0.4,0.2-0.6,0.5-0.7c2.3-1,4.6-2.1,6.9-3.1c0.3-0.1,0.5-0.1,0.7,0
		C15,8.8,15.4,9,15.8,9.1C15.9,9.2,16,9.1,16,9c0.9-1.7,2.3-2.5,4.2-2.5c2.2,0.1,4,1.8,4.2,4c0.2,1.9-0.7,3.6-2.4,4.5
		c-0.1,0.1-0.1,0.1-0.1,0.2c0,1.8,0,3.5,0,5.3c0,0.4-0.1,0.6-0.5,0.8c-2.3,1-4.6,2.1-6.9,3.1c-0.3,0.1-0.5,0.1-0.7,0
		c-2.3-1-4.6-2.1-6.9-3.1c-0.3-0.2-0.5-0.4-0.5-0.8C6.5,19.2,6.5,17.8,6.5,16.5z M7.8,13.3c0,2.3,0,4.6,0,6.8c0,0.1,0.1,0.1,0.1,0.2
		c1.2,0.6,2.5,1.1,3.7,1.7c0.6,0.3,1.3,0.6,2,0.9v-0.1c0-2.2,0-4.5,0-6.7c0-0.1-0.1-0.1-0.1-0.2c-0.9-0.4-1.7-0.8-2.6-1.2
		C9.9,14.2,8.8,13.8,7.8,13.3z M14.9,22.8L14.9,22.8c1.9-0.9,3.8-1.7,5.7-2.6c0.1,0,0.1-0.1,0.1-0.2c0-1.5,0-3,0-4.5
		c0-0.1-0.1-0.2-0.2-0.1c-1,0.1-2-0.1-2.9-0.7c-0.1-0.1-0.2-0.1-0.3,0c-0.8,0.4-1.5,0.7-2.3,1c-0.1,0.1-0.2,0.1-0.2,0.3
		c0,0.5,0,1,0,1.5C14.9,19.4,14.9,21.1,14.9,22.8z M20,14.2c1.8,0,3.2-1.4,3.2-3.2S21.8,7.8,20,7.8c-1.8,0-3.2,1.4-3.2,3.2
		S18.2,14.2,20,14.2z M8.7,12.3c0.1,0,0.1,0.1,0.1,0.1c1.7,0.8,3.5,1.6,5.2,2.4c0.1,0,0.2,0,0.3,0c0.7-0.3,1.3-0.6,2-0.9
		c0.1-0.1,0.1-0.1,0-0.2c-0.7-0.9-1-2-0.8-3.1c0-0.1,0-0.2-0.1-0.2c-0.4-0.2-0.7-0.3-1.1-0.5c-0.1,0-0.2,0-0.3,0
		C12.3,10.7,10.5,11.5,8.7,12.3z"/>
	<path class="st1" d="M20.6,9.6c0,0.2,0,0.4,0,0.6c0,0.1,0,0.1,0.1,0.1c0.4,0,0.7,0,1.1,0s0.7,0.3,0.7,0.6c0,0.4-0.3,0.6-0.7,0.7
		c-0.4,0-0.7,0-1.1,0c-0.2,0-0.2,0-0.2,0.2c0,0.4,0,0.7,0,1.1c0,0.4-0.3,0.7-0.6,0.7c-0.4,0-0.6-0.3-0.6-0.7s0-0.7,0-1.1
		c0-0.1,0-0.1-0.1-0.1c-0.4,0-0.7,0-1.1,0s-0.7-0.3-0.7-0.6c0-0.4,0.3-0.6,0.7-0.6c0.3,0,0.7,0,1,0c0.2,0,0.2-0.1,0.2-0.2
		c0-0.3,0-0.7,0-1c0-0.4,0.3-0.7,0.6-0.7c0.4,0,0.6,0.3,0.6,0.7C20.7,9.3,20.6,9.5,20.6,9.6z"/>
</g>
</svg>
